<?xml version="1.0" standalone="no"?>
<!DOCTYPE svg PUBLIC "-//W3C//DTD SVG 20010904//EN"
 "http://www.w3.org/TR/2001/REC-SVG-20010904/DTD/svg10.dtd">
<svg version="1.0" xmlns="http://www.w3.org/2000/svg"
 width="512.000000pt" height="512.000000pt" viewBox="0 0 512.000000 512.000000"
 preserveAspectRatio="xMidYMid meet">
<metadata>
Created by potrace 1.11, written by Peter Selinger 2001-2013
</metadata>
<g transform="translate(0.000000,512.000000) scale(0.100000,-0.100000)"
fill="#000000" stroke="none">
<path d="M0 2560 l0 -2560 2560 0 2560 0 0 2560 0 2560 -2560 0 -2560 0 0
-2560z m1851 1766 c67 -15 162 -58 211 -98 l27 -21 46 51 c26 29 55 52 66 52
18 0 19 -11 19 -245 l0 -245 -35 0 c-20 0 -37 5 -39 13 -2 6 -11 43 -20 81
-35 146 -124 265 -241 321 -52 26 -70 29 -150 29 -74 0 -97 -3 -133 -22 -103
-54 -161 -139 -169 -246 -9 -109 27 -185 108 -227 36 -18 193 -70 319 -105 30
-9 96 -35 145 -59 148 -71 234 -178 267 -334 58 -279 -21 -525 -217 -668 l-30
-22 148 -1 147 0 0 25 c0 24 2 24 85 27 47 2 85 6 85 11 0 4 0 205 0 447 l0
440 -85 0 -85 0 0 30 0 30 78 0 c42 0 141 3 220 7 l142 6 0 -487 0 -487 60 3
61 3 2 85 c2 78 5 90 35 137 27 41 46 58 100 85 37 18 69 34 72 36 3 2 -4 8
-15 14 -34 19 -93 87 -116 136 -18 37 -23 64 -23 128 0 72 4 90 33 148 18 37
48 81 67 100 131 127 364 138 502 21 16 -14 32 -25 36 -25 3 0 26 23 52 50 72
77 139 89 201 36 24 -21 28 -32 28 -76 0 -42 -4 -55 -24 -71 -46 -38 -95 -20
-143 51 l-16 25 -31 -30 -31 -30 24 -48 c48 -95 43 -209 -15 -325 -29 -59 -74
-103 -139 -137 -29 -16 -67 -20 -225 -25 -202 -6 -247 -16 -280 -64 -22 -31
-19 -89 6 -112 20 -18 45 -19 358 -24 336 -5 336 -5 380 -30 59 -33 90 -92 98
-186 12 -151 -42 -309 -136 -397 -154 -144 -428 -187 -618 -98 -114 54 -171
127 -180 230 -8 87 26 150 122 226 16 13 17 17 6 22 -8 3 -33 23 -56 44 l-42
39 -153 0 -153 0 7 -231 7 -230 -33 3 c-31 3 -33 5 -53 78 -47 169 -121 260
-244 300 -67 21 -92 24 -270 24 l-196 1 0 -370 0 -370 70 3 c39 2 95 10 125
19 94 26 149 106 166 241 6 51 7 52 40 52 l34 0 0 -360 0 -360 -34 0 c-34 0
-35 1 -41 48 -28 208 -102 284 -279 286 l-81 1 -3 -385 c-1 -212 -1 -389 2
-395 2 -6 86 -8 237 -5 l235 5 68 33 c54 27 76 46 111 93 43 58 83 160 105
264 21 101 17 95 56 95 l36 0 -6 -92 c-3 -51 -9 -177 -12 -280 l-7 -188 -664
0 -664 0 3 33 3 32 90 1 90 2 3 801 2 801 -120 0 -120 0 0 275 0 275 45 0 c37
0 45 -3 45 -18 0 -28 44 -150 78 -219 130 -256 439 -316 624 -121 64 67 91
139 92 243 1 68 -3 88 -26 136 -47 95 -102 129 -356 220 -219 78 -257 97 -323
157 -108 99 -154 230 -146 417 5 145 35 220 120 311 113 122 258 166 428 130z
m809 -122 c79 -32 109 -114 72 -198 -17 -38 -30 -50 -67 -67 -97 -43 -185 23
-185 139 0 55 22 91 74 123 38 23 54 24 106 3z m350 -2426 l0 -100 38 56 c127
189 358 208 537 44 187 -170 230 -481 100 -713 -108 -193 -276 -281 -458 -241
-87 20 -150 62 -186 126 -12 22 -24 40 -27 40 -2 0 -4 -153 -4 -340 l0 -340
85 0 85 0 0 -35 0 -35 -300 0 -300 0 0 35 0 35 85 0 85 0 0 750 0 749 -87 3
-88 3 0 30 0 30 210 5 c116 3 213 4 218 2 4 -2 7 -48 7 -104z"/>
<path d="M3265 3551 c-43 -11 -73 -29 -85 -51 -6 -11 -10 -109 -10 -242 0
-248 2 -257 66 -284 64 -27 160 -9 183 34 7 13 11 107 11 257 l0 236 -25 24
c-13 14 -34 25 -47 25 -13 0 -32 2 -43 4 -11 3 -33 1 -50 -3z"/>
<path d="M1395 2620 l-39 -40 99 0 99 0 -50 31 c-27 17 -50 35 -52 40 -6 16
-17 10 -57 -31z"/>
<path d="M3110 2469 c-42 -15 -63 -64 -68 -155 -6 -108 14 -168 73 -222 51
-48 95 -62 192 -62 192 0 325 75 392 220 43 92 46 150 10 186 -21 21 -41 28
-100 35 -99 11 -467 10 -499 -2z"/>
<path d="M3210 1817 c-61 -30 -135 -109 -171 -183 l-30 -61 3 -229 c3 -217 4
-232 27 -284 55 -124 145 -193 252 -193 73 0 134 33 163 88 20 38 21 55 21
395 0 351 0 356 -23 402 -41 83 -148 112 -242 65z"/>
</g>
</svg>
